# xmcd CD database file
#
# Track frame offsets:
#	150
#	26035
#	45572
#	62937
#	91609
#	124621
#	138390
#	169960
#	187536
#	215388
#	234972
#	257109
#
# Disc length: 3824 seconds
#
# Revision: 0
# Processed by: cddbd v1.5.1PL0 Copyright (c) Steve Scherf et al.
# Submitted via: CDex 1.51
#
DISCID=9a0eee0c
DTITLE=Willie Kent - Everybody Needs Sombody - Chicago Blues Session - Vol. 43
DYEAR=1998
DGENRE=Blues
TTITLE0=Better Days
TTITLE1=Don't Mess With My Baby
TTITLE2=Thought I Was Lucky
TTITLE3=My Baby's Gone
TTITLE4=One More Mile
TTITLE5=Too Hurt To Cry
TTITLE6=Everybody Needs Somebody
TTITLE7=I Just Want A Little Bit
TTITLE8=All Your Love
TTITLE9=Chicago Bound
TTITLE10=No Love In Your Heart
TTITLE11=Since I Met You Baby
EXTD=YEAR: 1998
EXTT0=
EXTT1=
EXTT2=
EXTT3=
EXTT4=
EXTT5=
EXTT6=
EXTT7=
EXTT8=
EXTT9=
EXTT10=
EXTT11=
PLAYORDER=
